<mxfile host="Electron" agent="Mozilla/5.0 (Macintosh; Intel Mac OS X 10_15_7) AppleWebKit/537.36 (KHTML, like Gecko) draw.io/27.0.5 Chrome/134.0.6998.205 Electron/35.3.0 Safari/537.36" version="27.0.5" pages="5">
  <diagram id="oBORmlcnGB-zdoD342w6" name="KYC">
    <mxGraphModel dx="1069" dy="911" grid="1" gridSize="10" guides="1" tooltips="1" connect="1" arrows="1" fold="1" page="1" pageScale="1" pageWidth="827" pageHeight="1169" math="0" shadow="0">
      <root>
        <mxCell id="0" />
        <mxCell id="1" parent="0" />
        <mxCell id="V-v9rvCk5EfedMy23m3k-1" value="IndividualCustomer" style="rounded=0;whiteSpace=wrap;html=1;" vertex="1" parent="1">
          <mxGeometry x="120" y="120" width="120" height="60" as="geometry" />
        </mxCell>
        <mxCell id="V-v9rvCk5EfedMy23m3k-2" value="FinancialInstitution" style="rounded=0;whiteSpace=wrap;html=1;" vertex="1" parent="1">
          <mxGeometry x="380" y="120" width="120" height="60" as="geometry" />
        </mxCell>
        <mxCell id="V-v9rvCk5EfedMy23m3k-3" value="" style="endArrow=none;html=1;rounded=0;exitX=1;exitY=0.5;exitDx=0;exitDy=0;entryX=0;entryY=0.5;entryDx=0;entryDy=0;" edge="1" parent="1" source="V-v9rvCk5EfedMy23m3k-1" target="V-v9rvCk5EfedMy23m3k-2">
          <mxGeometry width="50" height="50" relative="1" as="geometry">
            <mxPoint x="390" y="440" as="sourcePoint" />
            <mxPoint x="440" y="390" as="targetPoint" />
          </mxGeometry>
        </mxCell>
        <mxCell id="V-v9rvCk5EfedMy23m3k-4" value="customer of" style="edgeLabel;html=1;align=center;verticalAlign=middle;resizable=0;points=[];" vertex="1" connectable="0" parent="V-v9rvCk5EfedMy23m3k-3">
          <mxGeometry x="0.1286" y="-2" relative="1" as="geometry">
            <mxPoint y="-12" as="offset" />
          </mxGeometry>
        </mxCell>
        <mxCell id="V-v9rvCk5EfedMy23m3k-5" value="CorporateCustomer" style="rounded=0;whiteSpace=wrap;html=1;" vertex="1" parent="1">
          <mxGeometry x="120" y="240" width="120" height="60" as="geometry" />
        </mxCell>
        <mxCell id="V-v9rvCk5EfedMy23m3k-6" value="" style="endArrow=none;html=1;rounded=0;exitX=1;exitY=0.5;exitDx=0;exitDy=0;entryX=0.5;entryY=1;entryDx=0;entryDy=0;" edge="1" parent="1" source="V-v9rvCk5EfedMy23m3k-5" target="V-v9rvCk5EfedMy23m3k-2">
          <mxGeometry width="50" height="50" relative="1" as="geometry">
            <mxPoint x="260" y="280" as="sourcePoint" />
            <mxPoint x="400" y="280" as="targetPoint" />
            <Array as="points">
              <mxPoint x="440" y="270" />
            </Array>
          </mxGeometry>
        </mxCell>
        <mxCell id="V-v9rvCk5EfedMy23m3k-7" value="customer of" style="edgeLabel;html=1;align=center;verticalAlign=middle;resizable=0;points=[];" vertex="1" connectable="0" parent="V-v9rvCk5EfedMy23m3k-6">
          <mxGeometry x="0.1286" y="-2" relative="1" as="geometry">
            <mxPoint x="-74" y="-12" as="offset" />
          </mxGeometry>
        </mxCell>
        <mxCell id="V-v9rvCk5EfedMy23m3k-14" value="Before refinement (DDD)" style="text;html=1;align=left;verticalAlign=middle;whiteSpace=wrap;rounded=0;" vertex="1" parent="1">
          <mxGeometry x="610" y="280" width="150" height="30" as="geometry" />
        </mxCell>
        <mxCell id="V-v9rvCk5EfedMy23m3k-15" value="After refinement (SDM)" style="text;html=1;align=left;verticalAlign=middle;whiteSpace=wrap;rounded=0;" vertex="1" parent="1">
          <mxGeometry x="610" y="330" width="150" height="30" as="geometry" />
        </mxCell>
        <mxCell id="V-v9rvCk5EfedMy23m3k-16" value="" style="endArrow=none;dashed=1;html=1;dashPattern=1 3;strokeWidth=2;rounded=0;" edge="1" parent="1">
          <mxGeometry width="50" height="50" relative="1" as="geometry">
            <mxPoint x="80" y="320" as="sourcePoint" />
            <mxPoint x="780" y="320" as="targetPoint" />
          </mxGeometry>
        </mxCell>
        <mxCell id="V-v9rvCk5EfedMy23m3k-19" value="Entity" style="rounded=0;whiteSpace=wrap;html=1;" vertex="1" parent="1">
          <mxGeometry x="680" y="427.75" width="80" height="40" as="geometry" />
        </mxCell>
        <mxCell id="V-v9rvCk5EfedMy23m3k-20" value="Value Object" style="rounded=0;whiteSpace=wrap;html=1;fillColor=#FF3333;" vertex="1" parent="1">
          <mxGeometry x="680" y="477.75" width="80" height="40" as="geometry" />
        </mxCell>
        <mxCell id="V-v9rvCk5EfedMy23m3k-21" value="Keys" style="text;html=1;align=left;verticalAlign=middle;whiteSpace=wrap;rounded=0;" vertex="1" parent="1">
          <mxGeometry x="680" y="387.75" width="100" height="30" as="geometry" />
        </mxCell>
        <mxCell id="V-v9rvCk5EfedMy23m3k-73" value="Person" style="rounded=0;whiteSpace=wrap;html=1;" vertex="1" parent="1">
          <mxGeometry x="80" y="360" width="120" height="60" as="geometry" />
        </mxCell>
        <mxCell id="V-v9rvCk5EfedMy23m3k-74" value="Organisation" style="rounded=0;whiteSpace=wrap;html=1;" vertex="1" parent="1">
          <mxGeometry x="80" y="475.5" width="120" height="60" as="geometry" />
        </mxCell>
        <mxCell id="V-v9rvCk5EfedMy23m3k-75" value="Address" style="rounded=0;whiteSpace=wrap;html=1;fillColor=#FF3333;" vertex="1" parent="1">
          <mxGeometry x="280" y="420" width="80" height="35.5" as="geometry" />
        </mxCell>
        <mxCell id="V-v9rvCk5EfedMy23m3k-76" value="Person Name" style="rounded=0;whiteSpace=wrap;html=1;fillColor=#FF3333;" vertex="1" parent="1">
          <mxGeometry x="280" y="360" width="80" height="35.5" as="geometry" />
        </mxCell>
        <mxCell id="V-v9rvCk5EfedMy23m3k-77" value="" style="endArrow=none;html=1;rounded=0;entryX=1;entryY=0.75;entryDx=0;entryDy=0;exitX=0;exitY=0.5;exitDx=0;exitDy=0;" edge="1" parent="1" source="V-v9rvCk5EfedMy23m3k-75" target="V-v9rvCk5EfedMy23m3k-73">
          <mxGeometry width="50" height="50" relative="1" as="geometry">
            <mxPoint x="140" y="925" as="sourcePoint" />
            <mxPoint x="170" y="860" as="targetPoint" />
          </mxGeometry>
        </mxCell>
        <mxCell id="V-v9rvCk5EfedMy23m3k-78" value="lives in" style="edgeLabel;html=1;align=center;verticalAlign=middle;resizable=0;points=[];" vertex="1" connectable="0" parent="V-v9rvCk5EfedMy23m3k-77">
          <mxGeometry x="-0.05" y="1" relative="1" as="geometry">
            <mxPoint x="-2" y="-3" as="offset" />
          </mxGeometry>
        </mxCell>
        <mxCell id="V-v9rvCk5EfedMy23m3k-79" value="" style="endArrow=none;html=1;rounded=0;entryX=1;entryY=0.25;entryDx=0;entryDy=0;exitX=0;exitY=0.5;exitDx=0;exitDy=0;" edge="1" parent="1" source="V-v9rvCk5EfedMy23m3k-76" target="V-v9rvCk5EfedMy23m3k-73">
          <mxGeometry width="50" height="50" relative="1" as="geometry">
            <mxPoint x="310" y="480" as="sourcePoint" />
            <mxPoint x="240" y="480" as="targetPoint" />
          </mxGeometry>
        </mxCell>
        <mxCell id="V-v9rvCk5EfedMy23m3k-80" value="has" style="edgeLabel;html=1;align=center;verticalAlign=middle;resizable=0;points=[];" vertex="1" connectable="0" parent="V-v9rvCk5EfedMy23m3k-79">
          <mxGeometry x="0.2248" relative="1" as="geometry">
            <mxPoint x="9" y="-6" as="offset" />
          </mxGeometry>
        </mxCell>
        <mxCell id="V-v9rvCk5EfedMy23m3k-81" value="Organisation Name" style="rounded=0;whiteSpace=wrap;html=1;fillColor=#FF3333;" vertex="1" parent="1">
          <mxGeometry x="280" y="500" width="80" height="35.5" as="geometry" />
        </mxCell>
        <mxCell id="V-v9rvCk5EfedMy23m3k-82" value="" style="endArrow=none;html=1;rounded=0;exitX=0;exitY=0.5;exitDx=0;exitDy=0;entryX=1;entryY=0.75;entryDx=0;entryDy=0;" edge="1" parent="1" source="V-v9rvCk5EfedMy23m3k-81" target="V-v9rvCk5EfedMy23m3k-74">
          <mxGeometry width="50" height="50" relative="1" as="geometry">
            <mxPoint x="620" y="725" as="sourcePoint" />
            <mxPoint x="260" y="590" as="targetPoint" />
          </mxGeometry>
        </mxCell>
        <mxCell id="V-v9rvCk5EfedMy23m3k-83" value="has" style="edgeLabel;html=1;align=center;verticalAlign=middle;resizable=0;points=[];" vertex="1" connectable="0" parent="V-v9rvCk5EfedMy23m3k-82">
          <mxGeometry x="0.2248" relative="1" as="geometry">
            <mxPoint x="5" y="1" as="offset" />
          </mxGeometry>
        </mxCell>
        <mxCell id="V-v9rvCk5EfedMy23m3k-85" value="" style="endArrow=none;html=1;rounded=0;entryX=1;entryY=0.25;entryDx=0;entryDy=0;exitX=0.25;exitY=1;exitDx=0;exitDy=0;" edge="1" parent="1" source="V-v9rvCk5EfedMy23m3k-75" target="V-v9rvCk5EfedMy23m3k-74">
          <mxGeometry width="50" height="50" relative="1" as="geometry">
            <mxPoint x="290" y="448" as="sourcePoint" />
            <mxPoint x="210" y="415" as="targetPoint" />
          </mxGeometry>
        </mxCell>
        <mxCell id="V-v9rvCk5EfedMy23m3k-86" value="registered" style="edgeLabel;html=1;align=center;verticalAlign=middle;resizable=0;points=[];" vertex="1" connectable="0" parent="V-v9rvCk5EfedMy23m3k-85">
          <mxGeometry x="-0.05" y="1" relative="1" as="geometry">
            <mxPoint x="-3" y="2" as="offset" />
          </mxGeometry>
        </mxCell>
        <mxCell id="V-v9rvCk5EfedMy23m3k-88" value="Entity and&amp;nbsp;&lt;div&gt;Value Objects&lt;/div&gt;&lt;div&gt;Aggregates&lt;/div&gt;" style="shape=note;whiteSpace=wrap;html=1;backgroundOutline=1;darkOpacity=0.05;align=left;verticalAlign=top;" vertex="1" parent="1">
          <mxGeometry x="414" y="360" width="140" height="92.25" as="geometry" />
        </mxCell>
        <mxCell id="V-v9rvCk5EfedMy23m3k-89" value="Person" style="rounded=0;whiteSpace=wrap;html=1;" vertex="1" parent="1">
          <mxGeometry x="80" y="800" width="120" height="60" as="geometry" />
        </mxCell>
        <mxCell id="V-v9rvCk5EfedMy23m3k-90" value="Organisation" style="rounded=0;whiteSpace=wrap;html=1;" vertex="1" parent="1">
          <mxGeometry x="414" y="800" width="120" height="60" as="geometry" />
        </mxCell>
        <mxCell id="V-v9rvCk5EfedMy23m3k-92" value="" style="endArrow=none;html=1;rounded=0;exitX=1;exitY=0.5;exitDx=0;exitDy=0;entryX=0;entryY=0.5;entryDx=0;entryDy=0;" edge="1" parent="1" source="V-v9rvCk5EfedMy23m3k-89" target="V-v9rvCk5EfedMy23m3k-90">
          <mxGeometry width="50" height="50" relative="1" as="geometry">
            <mxPoint x="213" y="900" as="sourcePoint" />
            <mxPoint x="453" y="900" as="targetPoint" />
          </mxGeometry>
        </mxCell>
        <mxCell id="V-v9rvCk5EfedMy23m3k-93" value="financial institution" style="edgeLabel;html=1;align=center;verticalAlign=middle;resizable=0;points=[];" vertex="1" connectable="0" parent="V-v9rvCk5EfedMy23m3k-92">
          <mxGeometry x="0.8333" y="1" relative="1" as="geometry">
            <mxPoint x="-30" y="11" as="offset" />
          </mxGeometry>
        </mxCell>
        <mxCell id="V-v9rvCk5EfedMy23m3k-94" value="1..*" style="edgeLabel;html=1;align=center;verticalAlign=middle;resizable=0;points=[];" vertex="1" connectable="0" parent="V-v9rvCk5EfedMy23m3k-92">
          <mxGeometry x="-0.8515" relative="1" as="geometry">
            <mxPoint x="2" y="-10" as="offset" />
          </mxGeometry>
        </mxCell>
        <mxCell id="V-v9rvCk5EfedMy23m3k-95" value="1..*" style="edgeLabel;html=1;align=center;verticalAlign=middle;resizable=0;points=[];" vertex="1" connectable="0" parent="V-v9rvCk5EfedMy23m3k-92">
          <mxGeometry x="0.8152" y="-3" relative="1" as="geometry">
            <mxPoint x="2" y="-13" as="offset" />
          </mxGeometry>
        </mxCell>
        <mxCell id="V-v9rvCk5EfedMy23m3k-96" value="customer of" style="edgeLabel;html=1;align=center;verticalAlign=middle;resizable=0;points=[];" vertex="1" connectable="0" parent="V-v9rvCk5EfedMy23m3k-92">
          <mxGeometry x="-0.8809" relative="1" as="geometry">
            <mxPoint x="17" y="10" as="offset" />
          </mxGeometry>
        </mxCell>
        <mxCell id="V-v9rvCk5EfedMy23m3k-98" value="Individual&amp;nbsp;&lt;div&gt;Customer&lt;/div&gt;" style="rounded=0;whiteSpace=wrap;html=1;" vertex="1" parent="1">
          <mxGeometry x="230" y="900" width="120" height="60" as="geometry" />
        </mxCell>
        <mxCell id="V-v9rvCk5EfedMy23m3k-99" value="" style="endArrow=none;dashed=1;html=1;dashPattern=1 3;strokeWidth=2;rounded=0;exitX=0.5;exitY=0;exitDx=0;exitDy=0;" edge="1" parent="1" source="V-v9rvCk5EfedMy23m3k-98">
          <mxGeometry width="50" height="50" relative="1" as="geometry">
            <mxPoint x="316" y="880" as="sourcePoint" />
            <mxPoint x="290" y="830" as="targetPoint" />
          </mxGeometry>
        </mxCell>
        <mxCell id="V-v9rvCk5EfedMy23m3k-101" style="edgeStyle=orthogonalEdgeStyle;rounded=0;orthogonalLoop=1;jettySize=auto;html=1;entryX=1;entryY=0.5;entryDx=0;entryDy=0;" edge="1" parent="1" source="V-v9rvCk5EfedMy23m3k-100" target="V-v9rvCk5EfedMy23m3k-98">
          <mxGeometry relative="1" as="geometry" />
        </mxCell>
        <mxCell id="V-v9rvCk5EfedMy23m3k-100" value="Association&amp;nbsp;&lt;div&gt;entity or aggregates&lt;/div&gt;" style="shape=note;whiteSpace=wrap;html=1;backgroundOutline=1;darkOpacity=0.05;size=19;align=left;verticalAlign=top;" vertex="1" parent="1">
          <mxGeometry x="424" y="893.87" width="100" height="72.25" as="geometry" />
        </mxCell>
        <mxCell id="V-v9rvCk5EfedMy23m3k-102" value="Person" style="rounded=0;whiteSpace=wrap;html=1;" vertex="1" parent="1">
          <mxGeometry x="80" y="1000" width="120" height="60" as="geometry" />
        </mxCell>
        <mxCell id="V-v9rvCk5EfedMy23m3k-103" value="Organisation" style="rounded=0;whiteSpace=wrap;html=1;" vertex="1" parent="1">
          <mxGeometry x="370" y="1000" width="120" height="60" as="geometry" />
        </mxCell>
        <mxCell id="V-v9rvCk5EfedMy23m3k-104" value="" style="endArrow=none;html=1;rounded=0;exitX=1;exitY=0.5;exitDx=0;exitDy=0;entryX=0;entryY=0.5;entryDx=0;entryDy=0;" edge="1" parent="1" source="V-v9rvCk5EfedMy23m3k-102" target="V-v9rvCk5EfedMy23m3k-103">
          <mxGeometry width="50" height="50" relative="1" as="geometry">
            <mxPoint x="190" y="1130" as="sourcePoint" />
            <mxPoint x="404" y="1130" as="targetPoint" />
          </mxGeometry>
        </mxCell>
        <mxCell id="V-v9rvCk5EfedMy23m3k-105" value="corporation" style="edgeLabel;html=1;align=center;verticalAlign=middle;resizable=0;points=[];" vertex="1" connectable="0" parent="V-v9rvCk5EfedMy23m3k-104">
          <mxGeometry x="0.8333" y="1" relative="1" as="geometry">
            <mxPoint x="-16" y="11" as="offset" />
          </mxGeometry>
        </mxCell>
        <mxCell id="V-v9rvCk5EfedMy23m3k-106" value="1..*" style="edgeLabel;html=1;align=center;verticalAlign=middle;resizable=0;points=[];" vertex="1" connectable="0" parent="V-v9rvCk5EfedMy23m3k-104">
          <mxGeometry x="-0.8515" relative="1" as="geometry">
            <mxPoint x="2" y="-10" as="offset" />
          </mxGeometry>
        </mxCell>
        <mxCell id="V-v9rvCk5EfedMy23m3k-107" value="1..*" style="edgeLabel;html=1;align=center;verticalAlign=middle;resizable=0;points=[];" vertex="1" connectable="0" parent="V-v9rvCk5EfedMy23m3k-104">
          <mxGeometry x="0.8152" y="-3" relative="1" as="geometry">
            <mxPoint x="2" y="-13" as="offset" />
          </mxGeometry>
        </mxCell>
        <mxCell id="V-v9rvCk5EfedMy23m3k-108" value="owner of" style="edgeLabel;html=1;align=center;verticalAlign=middle;resizable=0;points=[];" vertex="1" connectable="0" parent="V-v9rvCk5EfedMy23m3k-104">
          <mxGeometry x="-0.8809" relative="1" as="geometry">
            <mxPoint x="17" y="10" as="offset" />
          </mxGeometry>
        </mxCell>
        <mxCell id="V-v9rvCk5EfedMy23m3k-109" value="Ultimate Beneficial Owner" style="rounded=0;whiteSpace=wrap;html=1;" vertex="1" parent="1">
          <mxGeometry x="220" y="1101" width="120" height="60" as="geometry" />
        </mxCell>
        <mxCell id="V-v9rvCk5EfedMy23m3k-110" value="" style="endArrow=none;dashed=1;html=1;dashPattern=1 3;strokeWidth=2;rounded=0;entryX=0.5;entryY=0;entryDx=0;entryDy=0;" edge="1" parent="1" target="V-v9rvCk5EfedMy23m3k-109">
          <mxGeometry width="50" height="50" relative="1" as="geometry">
            <mxPoint x="280" y="1030" as="sourcePoint" />
            <mxPoint x="310" y="1140" as="targetPoint" />
          </mxGeometry>
        </mxCell>
        <mxCell id="V-v9rvCk5EfedMy23m3k-111" value="" style="endArrow=none;html=1;rounded=0;exitX=0.5;exitY=1;exitDx=0;exitDy=0;entryX=1;entryY=0.5;entryDx=0;entryDy=0;" edge="1" parent="1" source="V-v9rvCk5EfedMy23m3k-103" target="V-v9rvCk5EfedMy23m3k-103">
          <mxGeometry width="50" height="50" relative="1" as="geometry">
            <mxPoint x="480" y="1135" as="sourcePoint" />
            <mxPoint x="570" y="1120" as="targetPoint" />
            <Array as="points">
              <mxPoint x="430" y="1131" />
              <mxPoint x="570" y="1131" />
              <mxPoint x="570" y="1030" />
            </Array>
          </mxGeometry>
        </mxCell>
        <mxCell id="V-v9rvCk5EfedMy23m3k-112" value="financial institution" style="edgeLabel;html=1;align=center;verticalAlign=middle;resizable=0;points=[];" vertex="1" connectable="0" parent="V-v9rvCk5EfedMy23m3k-111">
          <mxGeometry x="0.9297" y="1" relative="1" as="geometry">
            <mxPoint x="39" y="-11" as="offset" />
          </mxGeometry>
        </mxCell>
        <mxCell id="V-v9rvCk5EfedMy23m3k-113" value="1..*" style="edgeLabel;html=1;align=center;verticalAlign=middle;resizable=0;points=[];" vertex="1" connectable="0" parent="V-v9rvCk5EfedMy23m3k-111">
          <mxGeometry x="0.9395" y="1" relative="1" as="geometry">
            <mxPoint x="9" y="14" as="offset" />
          </mxGeometry>
        </mxCell>
        <mxCell id="V-v9rvCk5EfedMy23m3k-114" value="1..*" style="edgeLabel;html=1;align=center;verticalAlign=middle;resizable=0;points=[];" vertex="1" connectable="0" parent="V-v9rvCk5EfedMy23m3k-111">
          <mxGeometry x="-0.9395" y="2" relative="1" as="geometry">
            <mxPoint x="18" y="-1" as="offset" />
          </mxGeometry>
        </mxCell>
        <mxCell id="V-v9rvCk5EfedMy23m3k-115" value="customer of" style="edgeLabel;html=1;align=center;verticalAlign=middle;resizable=0;points=[];" vertex="1" connectable="0" parent="V-v9rvCk5EfedMy23m3k-111">
          <mxGeometry x="-0.9248" relative="1" as="geometry">
            <mxPoint x="-34" y="-4" as="offset" />
          </mxGeometry>
        </mxCell>
        <mxCell id="V-v9rvCk5EfedMy23m3k-116" value="Corporate&lt;br&gt;&lt;div&gt;Customer&lt;/div&gt;" style="rounded=0;whiteSpace=wrap;html=1;" vertex="1" parent="1">
          <mxGeometry x="430" y="1171" width="120" height="60" as="geometry" />
        </mxCell>
        <mxCell id="V-v9rvCk5EfedMy23m3k-117" value="" style="endArrow=none;dashed=1;html=1;dashPattern=1 3;strokeWidth=2;rounded=0;exitX=0.5;exitY=0;exitDx=0;exitDy=0;" edge="1" parent="1" source="V-v9rvCk5EfedMy23m3k-116">
          <mxGeometry width="50" height="50" relative="1" as="geometry">
            <mxPoint x="530" y="1700" as="sourcePoint" />
            <mxPoint x="490" y="1131" as="targetPoint" />
          </mxGeometry>
        </mxCell>
        <mxCell id="54m6Ztq8ck_YYkCcO71n-1" value="This is an alternate way of modelling a person&#39;s name. It accounts for a person having multiple names and the person&#39;s name is registered with authorised institution." style="shape=note;whiteSpace=wrap;html=1;backgroundOutline=1;darkOpacity=0.05;align=left;verticalAlign=top;size=20;" vertex="1" parent="1">
          <mxGeometry x="600" y="613.37" width="190" height="140" as="geometry" />
        </mxCell>
        <mxCell id="54m6Ztq8ck_YYkCcO71n-2" value="Person" style="rounded=0;whiteSpace=wrap;html=1;" vertex="1" parent="1">
          <mxGeometry x="80" y="601.12" width="120" height="60" as="geometry" />
        </mxCell>
        <mxCell id="54m6Ztq8ck_YYkCcO71n-3" value="Person Name" style="rounded=0;whiteSpace=wrap;html=1;fillColor=#FF3333;" vertex="1" parent="1">
          <mxGeometry x="460" y="613.37" width="80" height="35.5" as="geometry" />
        </mxCell>
        <mxCell id="54m6Ztq8ck_YYkCcO71n-5" value="" style="endArrow=none;html=1;rounded=0;exitX=1;exitY=0.5;exitDx=0;exitDy=0;entryX=0;entryY=0.5;entryDx=0;entryDy=0;" edge="1" parent="1" source="54m6Ztq8ck_YYkCcO71n-2" target="54m6Ztq8ck_YYkCcO71n-3">
          <mxGeometry width="50" height="50" relative="1" as="geometry">
            <mxPoint x="530" y="799.5" as="sourcePoint" />
            <mxPoint x="580" y="749.5" as="targetPoint" />
          </mxGeometry>
        </mxCell>
        <mxCell id="54m6Ztq8ck_YYkCcO71n-13" value="1..*" style="edgeLabel;html=1;align=center;verticalAlign=middle;resizable=0;points=[];" vertex="1" connectable="0" parent="54m6Ztq8ck_YYkCcO71n-5">
          <mxGeometry x="-0.8701" y="2" relative="1" as="geometry">
            <mxPoint y="-16" as="offset" />
          </mxGeometry>
        </mxCell>
        <mxCell id="54m6Ztq8ck_YYkCcO71n-14" value="1..*" style="edgeLabel;html=1;align=center;verticalAlign=middle;resizable=0;points=[];" vertex="1" connectable="0" parent="54m6Ztq8ck_YYkCcO71n-5">
          <mxGeometry x="0.8493" y="-1" relative="1" as="geometry">
            <mxPoint y="-12" as="offset" />
          </mxGeometry>
        </mxCell>
        <mxCell id="54m6Ztq8ck_YYkCcO71n-7" value="Registered Name" style="rounded=0;whiteSpace=wrap;html=1;" vertex="1" parent="1">
          <mxGeometry x="360" y="700" width="120" height="60" as="geometry" />
        </mxCell>
        <mxCell id="54m6Ztq8ck_YYkCcO71n-8" value="Organisation" style="rounded=0;whiteSpace=wrap;html=1;" vertex="1" parent="1">
          <mxGeometry x="80" y="700" width="120" height="60" as="geometry" />
        </mxCell>
        <mxCell id="54m6Ztq8ck_YYkCcO71n-9" value="" style="endArrow=none;dashed=1;html=1;dashPattern=1 3;strokeWidth=2;rounded=0;" edge="1" parent="1" source="54m6Ztq8ck_YYkCcO71n-7">
          <mxGeometry width="50" height="50" relative="1" as="geometry">
            <mxPoint x="300" y="980" as="sourcePoint" />
            <mxPoint x="330" y="630" as="targetPoint" />
            <Array as="points" />
          </mxGeometry>
        </mxCell>
        <mxCell id="54m6Ztq8ck_YYkCcO71n-10" value="" style="endArrow=none;html=1;rounded=0;exitX=1;exitY=0.5;exitDx=0;exitDy=0;" edge="1" parent="1" source="54m6Ztq8ck_YYkCcO71n-8" target="54m6Ztq8ck_YYkCcO71n-7">
          <mxGeometry width="50" height="50" relative="1" as="geometry">
            <mxPoint x="480" y="850" as="sourcePoint" />
            <mxPoint x="530" y="800" as="targetPoint" />
          </mxGeometry>
        </mxCell>
        <mxCell id="54m6Ztq8ck_YYkCcO71n-11" value="authorised institution" style="edgeLabel;html=1;align=center;verticalAlign=middle;resizable=0;points=[];" vertex="1" connectable="0" parent="54m6Ztq8ck_YYkCcO71n-10">
          <mxGeometry x="-0.8124" relative="1" as="geometry">
            <mxPoint x="44" y="10" as="offset" />
          </mxGeometry>
        </mxCell>
        <mxCell id="54m6Ztq8ck_YYkCcO71n-12" value="1..*" style="edgeLabel;html=1;align=center;verticalAlign=middle;resizable=0;points=[];" vertex="1" connectable="0" parent="54m6Ztq8ck_YYkCcO71n-10">
          <mxGeometry x="-0.6686" y="1" relative="1" as="geometry">
            <mxPoint x="-9" y="-9" as="offset" />
          </mxGeometry>
        </mxCell>
        <mxCell id="54m6Ztq8ck_YYkCcO71n-15" value="&lt;div&gt;&lt;br&gt;&lt;/div&gt;&lt;div&gt;&lt;br&gt;&lt;/div&gt;This is aspect models the relationship between person and an organisation (financial institution). The person in this case is acting as a customer (individual)." style="shape=note;whiteSpace=wrap;html=1;backgroundOutline=1;darkOpacity=0.05;align=left;verticalAlign=top;size=20;" vertex="1" parent="1">
          <mxGeometry x="600" y="800" width="190" height="140" as="geometry" />
        </mxCell>
        <mxCell id="54m6Ztq8ck_YYkCcO71n-16" value="&lt;div&gt;&lt;span style=&quot;background-color: transparent; color: light-dark(rgb(0, 0, 0), rgb(255, 255, 255));&quot;&gt;This is aspect models the ownership of an organisation (corporation) as the ultimate beneficial owner. It also shows the relation between an financial institution(organisation) and a corporate client (organisation).&lt;/span&gt;&lt;/div&gt;" style="shape=note;whiteSpace=wrap;html=1;backgroundOutline=1;darkOpacity=0.05;align=left;verticalAlign=top;size=20;" vertex="1" parent="1">
          <mxGeometry x="600" y="1000" width="190" height="140" as="geometry" />
        </mxCell>
      </root>
    </mxGraphModel>
  </diagram>
  <diagram id="0LgdDVwx3wBxw_LBuaN1" name="UML notations">
    <mxGraphModel dx="909" dy="774" grid="1" gridSize="10" guides="1" tooltips="1" connect="1" arrows="1" fold="1" page="1" pageScale="1" pageWidth="827" pageHeight="1169" math="0" shadow="0">
      <root>
        <mxCell id="0" />
        <mxCell id="1" parent="0" />
        <mxCell id="LCB69lUgOdf0DBg8nz61-1" value="" style="endArrow=none;html=1;edgeStyle=orthogonalEdgeStyle;rounded=0;" parent="1" edge="1">
          <mxGeometry relative="1" as="geometry">
            <mxPoint x="270" y="189.5" as="sourcePoint" />
            <mxPoint x="430" y="189.5" as="targetPoint" />
          </mxGeometry>
        </mxCell>
        <mxCell id="LCB69lUgOdf0DBg8nz61-2" value="role1" style="edgeLabel;resizable=0;html=1;align=left;verticalAlign=bottom;" parent="LCB69lUgOdf0DBg8nz61-1" connectable="0" vertex="1">
          <mxGeometry x="-1" relative="1" as="geometry" />
        </mxCell>
        <mxCell id="LCB69lUgOdf0DBg8nz61-3" value="role 2" style="edgeLabel;resizable=0;html=1;align=right;verticalAlign=bottom;" parent="LCB69lUgOdf0DBg8nz61-1" connectable="0" vertex="1">
          <mxGeometry x="1" relative="1" as="geometry" />
        </mxCell>
        <mxCell id="LCB69lUgOdf0DBg8nz61-4" value="Classname" style="swimlane;fontStyle=1;align=center;verticalAlign=top;childLayout=stackLayout;horizontal=1;startSize=26;horizontalStack=0;resizeParent=1;resizeParentMax=0;resizeLast=0;collapsible=1;marginBottom=0;whiteSpace=wrap;html=1;" parent="1" vertex="1">
          <mxGeometry x="80" y="240" width="130" height="86" as="geometry" />
        </mxCell>
        <mxCell id="LCB69lUgOdf0DBg8nz61-5" value="+ field: type" style="text;strokeColor=none;fillColor=none;align=left;verticalAlign=top;spacingLeft=4;spacingRight=4;overflow=hidden;rotatable=0;points=[[0,0.5],[1,0.5]];portConstraint=eastwest;whiteSpace=wrap;html=1;" parent="LCB69lUgOdf0DBg8nz61-4" vertex="1">
          <mxGeometry y="26" width="130" height="26" as="geometry" />
        </mxCell>
        <mxCell id="LCB69lUgOdf0DBg8nz61-6" value="" style="line;strokeWidth=1;fillColor=none;align=left;verticalAlign=middle;spacingTop=-1;spacingLeft=3;spacingRight=3;rotatable=0;labelPosition=right;points=[];portConstraint=eastwest;strokeColor=inherit;" parent="LCB69lUgOdf0DBg8nz61-4" vertex="1">
          <mxGeometry y="52" width="130" height="8" as="geometry" />
        </mxCell>
        <mxCell id="LCB69lUgOdf0DBg8nz61-7" value="+ method(type): type" style="text;strokeColor=none;fillColor=none;align=left;verticalAlign=top;spacingLeft=4;spacingRight=4;overflow=hidden;rotatable=0;points=[[0,0.5],[1,0.5]];portConstraint=eastwest;whiteSpace=wrap;html=1;" parent="LCB69lUgOdf0DBg8nz61-4" vertex="1">
          <mxGeometry y="60" width="130" height="26" as="geometry" />
        </mxCell>
        <mxCell id="LCB69lUgOdf0DBg8nz61-8" value="&lt;p style=&quot;margin:0px;margin-top:4px;text-align:center;&quot;&gt;&lt;b&gt;Class&lt;/b&gt;&lt;/p&gt;&lt;hr size=&quot;1&quot; style=&quot;border-style:solid;&quot;/&gt;&lt;div style=&quot;height:2px;&quot;&gt;&lt;/div&gt;" style="verticalAlign=top;align=left;overflow=fill;html=1;whiteSpace=wrap;" parent="1" vertex="1">
          <mxGeometry x="80" y="160" width="130" height="60" as="geometry" />
        </mxCell>
        <mxCell id="LCB69lUgOdf0DBg8nz61-9" value="«class»&lt;br&gt;&lt;b&gt;Name&lt;/b&gt;" style="html=1;whiteSpace=wrap;" parent="1" vertex="1">
          <mxGeometry x="80" y="350" width="130" height="50" as="geometry" />
        </mxCell>
        <mxCell id="LCB69lUgOdf0DBg8nz61-10" value="" style="endArrow=none;html=1;edgeStyle=orthogonalEdgeStyle;rounded=0;" parent="1" edge="1">
          <mxGeometry relative="1" as="geometry">
            <mxPoint x="270" y="282.5" as="sourcePoint" />
            <mxPoint x="430" y="282.5" as="targetPoint" />
          </mxGeometry>
        </mxCell>
        <mxCell id="LCB69lUgOdf0DBg8nz61-11" value="role1" style="edgeLabel;resizable=0;html=1;align=left;verticalAlign=bottom;" parent="LCB69lUgOdf0DBg8nz61-10" connectable="0" vertex="1">
          <mxGeometry x="-1" relative="1" as="geometry" />
        </mxCell>
        <mxCell id="LCB69lUgOdf0DBg8nz61-12" value="role 2" style="edgeLabel;resizable=0;html=1;align=right;verticalAlign=bottom;" parent="LCB69lUgOdf0DBg8nz61-10" connectable="0" vertex="1">
          <mxGeometry x="1" relative="1" as="geometry" />
        </mxCell>
        <mxCell id="LCB69lUgOdf0DBg8nz61-13" value="«Association Class»&lt;br&gt;&lt;b&gt;Name&lt;/b&gt;" style="html=1;whiteSpace=wrap;" parent="1" vertex="1">
          <mxGeometry x="280" y="320" width="120" height="50" as="geometry" />
        </mxCell>
        <mxCell id="LCB69lUgOdf0DBg8nz61-14" value="" style="endArrow=none;dashed=1;html=1;rounded=0;" parent="1" source="LCB69lUgOdf0DBg8nz61-13" edge="1">
          <mxGeometry width="50" height="50" relative="1" as="geometry">
            <mxPoint x="390" y="430" as="sourcePoint" />
            <mxPoint x="340" y="280" as="targetPoint" />
          </mxGeometry>
        </mxCell>
        <mxCell id="LCB69lUgOdf0DBg8nz61-15" value="*" style="edgeLabel;resizable=0;html=1;align=left;verticalAlign=bottom;" parent="1" connectable="0" vertex="1">
          <mxGeometry x="270" y="210" as="geometry" />
        </mxCell>
        <mxCell id="LCB69lUgOdf0DBg8nz61-16" value="1..*" style="edgeLabel;resizable=0;html=1;align=right;verticalAlign=bottom;" parent="1" connectable="0" vertex="1">
          <mxGeometry x="430" y="210" as="geometry" />
        </mxCell>
        <mxCell id="LCB69lUgOdf0DBg8nz61-17" value="" style="endArrow=none;dashed=1;html=1;dashPattern=1 3;strokeWidth=2;rounded=0;" parent="1" edge="1">
          <mxGeometry width="50" height="50" relative="1" as="geometry">
            <mxPoint x="240" y="430" as="sourcePoint" />
            <mxPoint x="240" y="120" as="targetPoint" />
          </mxGeometry>
        </mxCell>
        <mxCell id="LCB69lUgOdf0DBg8nz61-18" value="Class notations" style="text;html=1;align=center;verticalAlign=middle;whiteSpace=wrap;rounded=0;" parent="1" vertex="1">
          <mxGeometry x="115" y="100" width="60" height="30" as="geometry" />
        </mxCell>
        <mxCell id="LCB69lUgOdf0DBg8nz61-19" value="Association notations" style="text;html=1;align=center;verticalAlign=middle;whiteSpace=wrap;rounded=0;" parent="1" vertex="1">
          <mxGeometry x="310" y="100" width="60" height="30" as="geometry" />
        </mxCell>
        <mxCell id="LCB69lUgOdf0DBg8nz61-20" value="" style="endArrow=none;dashed=1;html=1;dashPattern=1 3;strokeWidth=2;rounded=0;" parent="1" edge="1">
          <mxGeometry width="50" height="50" relative="1" as="geometry">
            <mxPoint x="460" y="430" as="sourcePoint" />
            <mxPoint x="460" y="120" as="targetPoint" />
          </mxGeometry>
        </mxCell>
        <mxCell id="LCB69lUgOdf0DBg8nz61-21" value="Aggregation" style="text;html=1;align=center;verticalAlign=middle;whiteSpace=wrap;rounded=0;" parent="1" vertex="1">
          <mxGeometry x="585" y="90" width="60" height="30" as="geometry" />
        </mxCell>
        <mxCell id="LCB69lUgOdf0DBg8nz61-22" value="&lt;p style=&quot;margin:0px;margin-top:4px;text-align:center;&quot;&gt;&lt;b&gt;Class&lt;/b&gt;&lt;/p&gt;&lt;hr size=&quot;1&quot; style=&quot;border-style:solid;&quot;/&gt;&lt;div style=&quot;height:2px;&quot;&gt;&lt;/div&gt;" style="verticalAlign=top;align=left;overflow=fill;html=1;whiteSpace=wrap;" parent="1" vertex="1">
          <mxGeometry x="550" y="160" width="130" height="60" as="geometry" />
        </mxCell>
        <mxCell id="LCB69lUgOdf0DBg8nz61-24" value="&lt;p style=&quot;margin:0px;margin-top:4px;text-align:center;&quot;&gt;&lt;b&gt;Class&lt;/b&gt;&lt;/p&gt;&lt;hr size=&quot;1&quot; style=&quot;border-style:solid;&quot;/&gt;&lt;div style=&quot;height:2px;&quot;&gt;&lt;/div&gt;" style="verticalAlign=top;align=left;overflow=fill;html=1;whiteSpace=wrap;" parent="1" vertex="1">
          <mxGeometry x="480" y="320" width="130" height="60" as="geometry" />
        </mxCell>
        <mxCell id="LCB69lUgOdf0DBg8nz61-25" value="&lt;p style=&quot;margin:0px;margin-top:4px;text-align:center;&quot;&gt;&lt;b&gt;Class&lt;/b&gt;&lt;/p&gt;&lt;hr size=&quot;1&quot; style=&quot;border-style:solid;&quot;/&gt;&lt;div style=&quot;height:2px;&quot;&gt;&lt;/div&gt;" style="verticalAlign=top;align=left;overflow=fill;html=1;whiteSpace=wrap;" parent="1" vertex="1">
          <mxGeometry x="640" y="320" width="130" height="60" as="geometry" />
        </mxCell>
        <mxCell id="LCB69lUgOdf0DBg8nz61-26" value="1" style="endArrow=open;html=1;endSize=12;startArrow=diamondThin;startSize=14;startFill=0;edgeStyle=orthogonalEdgeStyle;align=left;verticalAlign=bottom;rounded=0;exitX=0.5;exitY=1;exitDx=0;exitDy=0;entryX=0.5;entryY=0;entryDx=0;entryDy=0;" parent="1" source="LCB69lUgOdf0DBg8nz61-22" target="LCB69lUgOdf0DBg8nz61-25" edge="1">
          <mxGeometry x="-0.7647" y="5" relative="1" as="geometry">
            <mxPoint x="600" y="230" as="sourcePoint" />
            <mxPoint x="490" y="400" as="targetPoint" />
            <mxPoint as="offset" />
          </mxGeometry>
        </mxCell>
        <mxCell id="LCB69lUgOdf0DBg8nz61-27" value="1" style="endArrow=open;html=1;endSize=12;startArrow=diamondThin;startSize=14;startFill=0;edgeStyle=orthogonalEdgeStyle;align=left;verticalAlign=bottom;rounded=0;entryX=0.5;entryY=0;entryDx=0;entryDy=0;exitX=0.5;exitY=1;exitDx=0;exitDy=0;" parent="1" source="LCB69lUgOdf0DBg8nz61-22" target="LCB69lUgOdf0DBg8nz61-24" edge="1">
          <mxGeometry x="-0.7647" y="5" relative="1" as="geometry">
            <mxPoint x="610" y="220" as="sourcePoint" />
            <mxPoint x="715" y="330" as="targetPoint" />
            <mxPoint as="offset" />
          </mxGeometry>
        </mxCell>
        <mxCell id="OuxJUZZuY7oT9O20JfjM-1" value="" style="shape=image;verticalLabelPosition=bottom;labelBackgroundColor=default;verticalAlign=top;aspect=fixed;imageAspect=0;image=https://d2slcw3kip6qmk.cloudfront.net/marketing/pages/chart/what-is-a-use-case-diagram-in-UML/UML_use_case_example-800x707.PNG;" parent="1" vertex="1">
          <mxGeometry x="100" y="470" width="577.09" height="510" as="geometry" />
        </mxCell>
      </root>
    </mxGraphModel>
  </diagram>
  <diagram id="sDl5jWxhZ96TLL3nqUqb" name="The Process">
    <mxGraphModel dx="1580" dy="1106" grid="1" gridSize="10" guides="1" tooltips="1" connect="1" arrows="1" fold="1" page="1" pageScale="1" pageWidth="827" pageHeight="1169" math="0" shadow="0">
      <root>
        <mxCell id="0" />
        <mxCell id="1" parent="0" />
        <mxCell id="G9vypLcqHqMWO8T7BXz3-21" value="" style="edgeStyle=orthogonalEdgeStyle;rounded=0;orthogonalLoop=1;jettySize=auto;html=1;" edge="1" parent="1" source="G9vypLcqHqMWO8T7BXz3-1" target="G9vypLcqHqMWO8T7BXz3-18">
          <mxGeometry relative="1" as="geometry" />
        </mxCell>
        <mxCell id="G9vypLcqHqMWO8T7BXz3-1" value="Start" style="ellipse;whiteSpace=wrap;html=1;aspect=fixed;" vertex="1" parent="1">
          <mxGeometry x="300" y="130" width="40" height="40" as="geometry" />
        </mxCell>
        <mxCell id="G9vypLcqHqMWO8T7BXz3-10" style="edgeStyle=orthogonalEdgeStyle;rounded=0;orthogonalLoop=1;jettySize=auto;html=1;entryX=0;entryY=0.5;entryDx=0;entryDy=0;" edge="1" parent="1" source="G9vypLcqHqMWO8T7BXz3-9" target="G9vypLcqHqMWO8T7BXz3-18">
          <mxGeometry relative="1" as="geometry">
            <mxPoint x="260" y="230" as="targetPoint" />
            <Array as="points">
              <mxPoint x="200" y="570" />
              <mxPoint x="200" y="230" />
            </Array>
          </mxGeometry>
        </mxCell>
        <mxCell id="G9vypLcqHqMWO8T7BXz3-37" value="" style="edgeStyle=orthogonalEdgeStyle;rounded=0;orthogonalLoop=1;jettySize=auto;html=1;" edge="1" parent="1" source="G9vypLcqHqMWO8T7BXz3-9" target="G9vypLcqHqMWO8T7BXz3-35">
          <mxGeometry relative="1" as="geometry" />
        </mxCell>
        <mxCell id="G9vypLcqHqMWO8T7BXz3-9" value="Refine&lt;div&gt;?&lt;/div&gt;" style="rhombus;whiteSpace=wrap;html=1;" vertex="1" parent="1">
          <mxGeometry x="280" y="530" width="80" height="80" as="geometry" />
        </mxCell>
        <mxCell id="G9vypLcqHqMWO8T7BXz3-15" value="Process" style="text;html=1;align=center;verticalAlign=middle;whiteSpace=wrap;rounded=0;fontStyle=1;fontSize=15;" vertex="1" parent="1">
          <mxGeometry x="290" y="80" width="60" height="30" as="geometry" />
        </mxCell>
        <mxCell id="G9vypLcqHqMWO8T7BXz3-17" value="Deliverables" style="text;html=1;align=center;verticalAlign=middle;whiteSpace=wrap;rounded=0;fontStyle=1;fontSize=15;" vertex="1" parent="1">
          <mxGeometry x="538" y="80" width="60" height="30" as="geometry" />
        </mxCell>
        <mxCell id="G9vypLcqHqMWO8T7BXz3-22" value="" style="edgeStyle=orthogonalEdgeStyle;rounded=0;orthogonalLoop=1;jettySize=auto;html=1;" edge="1" parent="1" source="G9vypLcqHqMWO8T7BXz3-18" target="G9vypLcqHqMWO8T7BXz3-19">
          <mxGeometry relative="1" as="geometry" />
        </mxCell>
        <mxCell id="G9vypLcqHqMWO8T7BXz3-18" value="Scope of&amp;nbsp;&lt;div&gt;Domain&lt;/div&gt;" style="shape=process;whiteSpace=wrap;html=1;backgroundOutline=1;align=center;" vertex="1" parent="1">
          <mxGeometry x="260" y="200" width="120" height="60" as="geometry" />
        </mxCell>
        <mxCell id="G9vypLcqHqMWO8T7BXz3-23" value="" style="edgeStyle=orthogonalEdgeStyle;rounded=0;orthogonalLoop=1;jettySize=auto;html=1;" edge="1" parent="1" source="G9vypLcqHqMWO8T7BXz3-19" target="G9vypLcqHqMWO8T7BXz3-20">
          <mxGeometry relative="1" as="geometry" />
        </mxCell>
        <mxCell id="G9vypLcqHqMWO8T7BXz3-19" value="Domain Driven Design" style="shape=process;whiteSpace=wrap;html=1;backgroundOutline=1;align=center;" vertex="1" parent="1">
          <mxGeometry x="260" y="310" width="120" height="60" as="geometry" />
        </mxCell>
        <mxCell id="G9vypLcqHqMWO8T7BXz3-24" value="" style="edgeStyle=orthogonalEdgeStyle;rounded=0;orthogonalLoop=1;jettySize=auto;html=1;" edge="1" parent="1" source="G9vypLcqHqMWO8T7BXz3-20" target="G9vypLcqHqMWO8T7BXz3-9">
          <mxGeometry relative="1" as="geometry" />
        </mxCell>
        <mxCell id="G9vypLcqHqMWO8T7BXz3-20" value="Semantic Data Modelling" style="shape=process;whiteSpace=wrap;html=1;backgroundOutline=1;" vertex="1" parent="1">
          <mxGeometry x="260" y="420" width="120" height="60" as="geometry" />
        </mxCell>
        <mxCell id="G9vypLcqHqMWO8T7BXz3-25" style="edgeStyle=orthogonalEdgeStyle;rounded=0;orthogonalLoop=1;jettySize=auto;html=1;entryX=-0.017;entryY=0.633;entryDx=0;entryDy=0;entryPerimeter=0;exitX=0;exitY=0.5;exitDx=0;exitDy=0;" edge="1" parent="1" source="G9vypLcqHqMWO8T7BXz3-9" target="G9vypLcqHqMWO8T7BXz3-19">
          <mxGeometry relative="1" as="geometry">
            <mxPoint x="290" y="580" as="sourcePoint" />
            <mxPoint x="270" y="240" as="targetPoint" />
            <Array as="points">
              <mxPoint x="200" y="570" />
              <mxPoint x="200" y="348" />
            </Array>
          </mxGeometry>
        </mxCell>
        <mxCell id="G9vypLcqHqMWO8T7BXz3-27" style="edgeStyle=orthogonalEdgeStyle;rounded=0;orthogonalLoop=1;jettySize=auto;html=1;entryX=0;entryY=0.5;entryDx=0;entryDy=0;exitX=0;exitY=0.5;exitDx=0;exitDy=0;" edge="1" parent="1" source="G9vypLcqHqMWO8T7BXz3-9" target="G9vypLcqHqMWO8T7BXz3-20">
          <mxGeometry relative="1" as="geometry">
            <mxPoint x="290" y="580" as="sourcePoint" />
            <mxPoint x="268" y="358" as="targetPoint" />
            <Array as="points">
              <mxPoint x="200" y="570" />
              <mxPoint x="200" y="450" />
            </Array>
          </mxGeometry>
        </mxCell>
        <mxCell id="G9vypLcqHqMWO8T7BXz3-36" value="Yes" style="edgeLabel;html=1;align=center;verticalAlign=middle;resizable=0;points=[];" vertex="1" connectable="0" parent="G9vypLcqHqMWO8T7BXz3-27">
          <mxGeometry x="0.0615" y="-1" relative="1" as="geometry">
            <mxPoint x="49" y="58" as="offset" />
          </mxGeometry>
        </mxCell>
        <mxCell id="G9vypLcqHqMWO8T7BXz3-28" value="Backlogs" style="shape=note;whiteSpace=wrap;html=1;backgroundOutline=1;darkOpacity=0.05;size=20;" vertex="1" parent="1">
          <mxGeometry x="560" y="300" width="64" height="80" as="geometry" />
        </mxCell>
        <mxCell id="G9vypLcqHqMWO8T7BXz3-29" value="" style="shape=flexArrow;endArrow=classic;html=1;rounded=0;" edge="1" parent="1">
          <mxGeometry width="50" height="50" relative="1" as="geometry">
            <mxPoint x="400" y="230" as="sourcePoint" />
            <mxPoint x="520" y="230" as="targetPoint" />
          </mxGeometry>
        </mxCell>
        <mxCell id="G9vypLcqHqMWO8T7BXz3-30" value="" style="shape=flexArrow;endArrow=classic;html=1;rounded=0;" edge="1" parent="1">
          <mxGeometry width="50" height="50" relative="1" as="geometry">
            <mxPoint x="400" y="340" as="sourcePoint" />
            <mxPoint x="500" y="370" as="targetPoint" />
          </mxGeometry>
        </mxCell>
        <mxCell id="G9vypLcqHqMWO8T7BXz3-31" value="" style="shape=flexArrow;endArrow=classic;html=1;rounded=0;" edge="1" parent="1">
          <mxGeometry width="50" height="50" relative="1" as="geometry">
            <mxPoint x="400" y="449.5" as="sourcePoint" />
            <mxPoint x="490" y="400" as="targetPoint" />
          </mxGeometry>
        </mxCell>
        <mxCell id="G9vypLcqHqMWO8T7BXz3-32" value="" style="endArrow=none;dashed=1;html=1;dashPattern=1 3;strokeWidth=2;rounded=0;" edge="1" parent="1">
          <mxGeometry width="50" height="50" relative="1" as="geometry">
            <mxPoint x="440" y="960" as="sourcePoint" />
            <mxPoint x="440" y="80" as="targetPoint" />
          </mxGeometry>
        </mxCell>
        <mxCell id="G9vypLcqHqMWO8T7BXz3-33" value="" style="endArrow=classic;startArrow=classic;html=1;rounded=0;" edge="1" parent="1">
          <mxGeometry width="50" height="50" relative="1" as="geometry">
            <mxPoint x="80" y="630" as="sourcePoint" />
            <mxPoint x="80" y="140" as="targetPoint" />
          </mxGeometry>
        </mxCell>
        <mxCell id="G9vypLcqHqMWO8T7BXz3-34" value="Understanding&lt;div&gt;the business&lt;/div&gt;&lt;div&gt;domain&lt;/div&gt;" style="edgeLabel;html=1;align=center;verticalAlign=middle;resizable=0;points=[];" vertex="1" connectable="0" parent="G9vypLcqHqMWO8T7BXz3-33">
          <mxGeometry x="-0.187" relative="1" as="geometry">
            <mxPoint as="offset" />
          </mxGeometry>
        </mxCell>
        <mxCell id="G9vypLcqHqMWO8T7BXz3-41" value="" style="edgeStyle=orthogonalEdgeStyle;rounded=0;orthogonalLoop=1;jettySize=auto;html=1;" edge="1" parent="1" source="G9vypLcqHqMWO8T7BXz3-35" target="G9vypLcqHqMWO8T7BXz3-40">
          <mxGeometry relative="1" as="geometry" />
        </mxCell>
        <mxCell id="G9vypLcqHqMWO8T7BXz3-35" value="Use Case Analysis" style="shape=process;whiteSpace=wrap;html=1;backgroundOutline=1;" vertex="1" parent="1">
          <mxGeometry x="260" y="670" width="120" height="60" as="geometry" />
        </mxCell>
        <mxCell id="G9vypLcqHqMWO8T7BXz3-38" value="" style="endArrow=none;dashed=1;html=1;dashPattern=1 3;strokeWidth=2;rounded=0;" edge="1" parent="1">
          <mxGeometry width="50" height="50" relative="1" as="geometry">
            <mxPoint x="20" y="140" as="sourcePoint" />
            <mxPoint x="280" y="140" as="targetPoint" />
          </mxGeometry>
        </mxCell>
        <mxCell id="G9vypLcqHqMWO8T7BXz3-39" value="" style="endArrow=none;dashed=1;html=1;dashPattern=1 3;strokeWidth=2;rounded=0;" edge="1" parent="1">
          <mxGeometry width="50" height="50" relative="1" as="geometry">
            <mxPoint x="40" y="630" as="sourcePoint" />
            <mxPoint x="710" y="630" as="targetPoint" />
          </mxGeometry>
        </mxCell>
        <mxCell id="G9vypLcqHqMWO8T7BXz3-43" value="" style="edgeStyle=orthogonalEdgeStyle;rounded=0;orthogonalLoop=1;jettySize=auto;html=1;" edge="1" parent="1" source="G9vypLcqHqMWO8T7BXz3-40" target="G9vypLcqHqMWO8T7BXz3-42">
          <mxGeometry relative="1" as="geometry" />
        </mxCell>
        <mxCell id="G9vypLcqHqMWO8T7BXz3-40" value="Map Models to Code Structure" style="shape=process;whiteSpace=wrap;html=1;backgroundOutline=1;" vertex="1" parent="1">
          <mxGeometry x="260" y="815" width="120" height="60" as="geometry" />
        </mxCell>
        <mxCell id="G9vypLcqHqMWO8T7BXz3-42" value="Build and Deploy Arttfacts" style="ellipse;whiteSpace=wrap;html=1;" vertex="1" parent="1">
          <mxGeometry x="260" y="960" width="120" height="80" as="geometry" />
        </mxCell>
        <mxCell id="G9vypLcqHqMWO8T7BXz3-44" value="User&amp;nbsp;&lt;div&gt;stories&lt;/div&gt;" style="shape=note;whiteSpace=wrap;html=1;backgroundOutline=1;darkOpacity=0.05;size=20;" vertex="1" parent="1">
          <mxGeometry x="530" y="650" width="76" height="80" as="geometry" />
        </mxCell>
        <mxCell id="G9vypLcqHqMWO8T7BXz3-47" value="Project&amp;nbsp;&lt;div&gt;layout&lt;/div&gt;" style="shape=note;whiteSpace=wrap;html=1;backgroundOutline=1;darkOpacity=0.05;size=20;" vertex="1" parent="1">
          <mxGeometry x="530" y="760" width="76" height="80" as="geometry" />
        </mxCell>
        <mxCell id="G9vypLcqHqMWO8T7BXz3-48" value="" style="shape=flexArrow;endArrow=classic;html=1;rounded=0;" edge="1" parent="1">
          <mxGeometry width="50" height="50" relative="1" as="geometry">
            <mxPoint x="400" y="699.5" as="sourcePoint" />
            <mxPoint x="500" y="699.5" as="targetPoint" />
          </mxGeometry>
        </mxCell>
        <mxCell id="G9vypLcqHqMWO8T7BXz3-49" value="Source Codes" style="shape=note;whiteSpace=wrap;html=1;backgroundOutline=1;darkOpacity=0.05;size=20;" vertex="1" parent="1">
          <mxGeometry x="530" y="850" width="76" height="80" as="geometry" />
        </mxCell>
        <mxCell id="G9vypLcqHqMWO8T7BXz3-53" value="" style="shape=flexArrow;endArrow=classic;html=1;rounded=0;" edge="1" parent="1">
          <mxGeometry width="50" height="50" relative="1" as="geometry">
            <mxPoint x="400" y="844.5" as="sourcePoint" />
            <mxPoint x="470" y="850" as="targetPoint" />
          </mxGeometry>
        </mxCell>
        <mxCell id="G9vypLcqHqMWO8T7BXz3-54" value="" style="endArrow=classic;startArrow=classic;html=1;rounded=0;" edge="1" parent="1">
          <mxGeometry width="50" height="50" relative="1" as="geometry">
            <mxPoint x="80" y="1040" as="sourcePoint" />
            <mxPoint x="80" y="630" as="targetPoint" />
          </mxGeometry>
        </mxCell>
        <mxCell id="G9vypLcqHqMWO8T7BXz3-55" value="Architecture&lt;div&gt;&amp;amp;&lt;br&gt;Implementation&lt;/div&gt;" style="edgeLabel;html=1;align=center;verticalAlign=middle;resizable=0;points=[];" vertex="1" connectable="0" parent="G9vypLcqHqMWO8T7BXz3-54">
          <mxGeometry x="-0.187" relative="1" as="geometry">
            <mxPoint as="offset" />
          </mxGeometry>
        </mxCell>
        <mxCell id="G9vypLcqHqMWO8T7BXz3-56" value="Epics" style="shape=note;whiteSpace=wrap;html=1;backgroundOutline=1;darkOpacity=0.05;size=20;" vertex="1" parent="1">
          <mxGeometry x="560" y="400" width="66" height="80" as="geometry" />
        </mxCell>
        <mxCell id="G9vypLcqHqMWO8T7BXz3-58" value="" style="shape=curlyBracket;whiteSpace=wrap;html=1;rounded=1;labelPosition=left;verticalLabelPosition=middle;align=right;verticalAlign=middle;size=0.5;" vertex="1" parent="1">
          <mxGeometry x="490" y="770" width="30" height="170" as="geometry" />
        </mxCell>
        <mxCell id="G9vypLcqHqMWO8T7BXz3-59" value="" style="shape=curlyBracket;whiteSpace=wrap;html=1;rounded=1;labelPosition=left;verticalLabelPosition=middle;align=right;verticalAlign=middle;size=0.5;" vertex="1" parent="1">
          <mxGeometry x="520" y="300" width="30" height="170" as="geometry" />
        </mxCell>
        <mxCell id="G9vypLcqHqMWO8T7BXz3-60" value="Problem statements" style="shape=note;whiteSpace=wrap;html=1;backgroundOutline=1;darkOpacity=0.05;size=20;" vertex="1" parent="1">
          <mxGeometry x="542" y="190" width="64" height="80" as="geometry" />
        </mxCell>
        <mxCell id="G9vypLcqHqMWO8T7BXz3-61" style="edgeStyle=orthogonalEdgeStyle;rounded=0;orthogonalLoop=1;jettySize=auto;html=1;exitX=0;exitY=0.5;exitDx=0;exitDy=0;entryX=0.5;entryY=1;entryDx=0;entryDy=0;" edge="1" parent="1" source="G9vypLcqHqMWO8T7BXz3-42" target="G9vypLcqHqMWO8T7BXz3-65">
          <mxGeometry relative="1" as="geometry">
            <mxPoint x="250.96000000000004" y="994" as="sourcePoint" />
            <mxPoint x="200" y="880" as="targetPoint" />
            <Array as="points">
              <mxPoint x="195" y="1000" />
            </Array>
          </mxGeometry>
        </mxCell>
        <mxCell id="G9vypLcqHqMWO8T7BXz3-65" value="More&amp;nbsp;&lt;div&gt;refinements&lt;/div&gt;" style="ellipse;whiteSpace=wrap;html=1;" vertex="1" parent="1">
          <mxGeometry x="150" y="830" width="90" height="50" as="geometry" />
        </mxCell>
      </root>
    </mxGraphModel>
  </diagram>
  <diagram id="xnwlYm86E2GHT1yKsOET" name="Use Case Analysis">
    <mxGraphModel dx="909" dy="774" grid="1" gridSize="10" guides="1" tooltips="1" connect="1" arrows="1" fold="1" page="1" pageScale="1" pageWidth="827" pageHeight="1169" math="0" shadow="0">
      <root>
        <mxCell id="0" />
        <mxCell id="1" parent="0" />
        <mxCell id="1XNtU8Bn_IHFHuK3KSIp-1" value="" style="rounded=0;whiteSpace=wrap;html=1;fillColor=none;" vertex="1" parent="1">
          <mxGeometry x="400" y="120" width="180" height="380" as="geometry" />
        </mxCell>
        <mxCell id="BsTmL9pJ-dNnuUBxhzF8-1" value="Datum&#39;s KYC" style="text;html=1;align=center;verticalAlign=middle;whiteSpace=wrap;rounded=0;" vertex="1" parent="1">
          <mxGeometry x="440" y="130" width="90" height="30" as="geometry" />
        </mxCell>
        <mxCell id="BsTmL9pJ-dNnuUBxhzF8-2" value="" style="rounded=0;whiteSpace=wrap;html=1;fillColor=none;" vertex="1" parent="1">
          <mxGeometry x="160" y="120" width="160" height="280" as="geometry" />
        </mxCell>
        <mxCell id="BsTmL9pJ-dNnuUBxhzF8-3" value="Bank ABC" style="text;html=1;align=center;verticalAlign=middle;whiteSpace=wrap;rounded=0;" vertex="1" parent="1">
          <mxGeometry x="195" y="130" width="90" height="30" as="geometry" />
        </mxCell>
        <mxCell id="BsTmL9pJ-dNnuUBxhzF8-4" value="Alice" style="shape=umlActor;verticalLabelPosition=bottom;verticalAlign=top;html=1;outlineConnect=0;" vertex="1" parent="1">
          <mxGeometry x="50" y="160" width="30" height="60" as="geometry" />
        </mxCell>
        <mxCell id="BsTmL9pJ-dNnuUBxhzF8-6" value="Bob" style="shape=umlActor;verticalLabelPosition=bottom;verticalAlign=top;html=1;outlineConnect=0;" vertex="1" parent="1">
          <mxGeometry x="50" y="270" width="30" height="60" as="geometry" />
        </mxCell>
        <mxCell id="BsTmL9pJ-dNnuUBxhzF8-9" value="Opening&lt;div&gt;Account&lt;/div&gt;" style="ellipse;whiteSpace=wrap;html=1;" vertex="1" parent="1">
          <mxGeometry x="180" y="180" width="120" height="80" as="geometry" />
        </mxCell>
        <mxCell id="BsTmL9pJ-dNnuUBxhzF8-10" value="Customer Onboarding" style="ellipse;whiteSpace=wrap;html=1;" vertex="1" parent="1">
          <mxGeometry x="425" y="170" width="120" height="80" as="geometry" />
        </mxCell>
        <mxCell id="BsTmL9pJ-dNnuUBxhzF8-11" value="Risk&lt;div&gt;Management&lt;/div&gt;" style="ellipse;whiteSpace=wrap;html=1;" vertex="1" parent="1">
          <mxGeometry x="425" y="280" width="120" height="80" as="geometry" />
        </mxCell>
        <mxCell id="BsTmL9pJ-dNnuUBxhzF8-12" value="Ongoing&amp;nbsp;&lt;div&gt;Monitoring&lt;/div&gt;" style="ellipse;whiteSpace=wrap;html=1;" vertex="1" parent="1">
          <mxGeometry x="430" y="400" width="120" height="80" as="geometry" />
        </mxCell>
        <mxCell id="BsTmL9pJ-dNnuUBxhzF8-13" value="Account&lt;div&gt;Transactions&lt;/div&gt;" style="ellipse;whiteSpace=wrap;html=1;" vertex="1" parent="1">
          <mxGeometry x="180" y="280" width="120" height="80" as="geometry" />
        </mxCell>
        <mxCell id="BsTmL9pJ-dNnuUBxhzF8-14" value="" style="endArrow=none;html=1;rounded=0;exitX=1;exitY=0.3333333333333333;exitDx=0;exitDy=0;exitPerimeter=0;entryX=0;entryY=0.5;entryDx=0;entryDy=0;" edge="1" parent="1" source="BsTmL9pJ-dNnuUBxhzF8-4" target="BsTmL9pJ-dNnuUBxhzF8-9">
          <mxGeometry width="50" height="50" relative="1" as="geometry">
            <mxPoint x="390" y="470" as="sourcePoint" />
            <mxPoint x="440" y="420" as="targetPoint" />
          </mxGeometry>
        </mxCell>
        <mxCell id="BsTmL9pJ-dNnuUBxhzF8-15" value="" style="endArrow=none;html=1;rounded=0;exitX=1;exitY=0.3333333333333333;exitDx=0;exitDy=0;exitPerimeter=0;entryX=0;entryY=0.5;entryDx=0;entryDy=0;" edge="1" parent="1" source="BsTmL9pJ-dNnuUBxhzF8-6" target="BsTmL9pJ-dNnuUBxhzF8-13">
          <mxGeometry width="50" height="50" relative="1" as="geometry">
            <mxPoint x="90" y="190" as="sourcePoint" />
            <mxPoint x="208" y="202" as="targetPoint" />
          </mxGeometry>
        </mxCell>
        <mxCell id="BsTmL9pJ-dNnuUBxhzF8-16" value="" style="endArrow=none;html=1;rounded=0;exitX=1;exitY=0.5;exitDx=0;exitDy=0;entryX=0;entryY=0.5;entryDx=0;entryDy=0;" edge="1" parent="1" source="BsTmL9pJ-dNnuUBxhzF8-9" target="BsTmL9pJ-dNnuUBxhzF8-10">
          <mxGeometry width="50" height="50" relative="1" as="geometry">
            <mxPoint x="90" y="300" as="sourcePoint" />
            <mxPoint x="190" y="230" as="targetPoint" />
          </mxGeometry>
        </mxCell>
        <mxCell id="BsTmL9pJ-dNnuUBxhzF8-17" value="" style="endArrow=none;html=1;rounded=0;exitX=1;exitY=1;exitDx=0;exitDy=0;entryX=0;entryY=0.5;entryDx=0;entryDy=0;" edge="1" parent="1" source="BsTmL9pJ-dNnuUBxhzF8-9" target="BsTmL9pJ-dNnuUBxhzF8-11">
          <mxGeometry width="50" height="50" relative="1" as="geometry">
            <mxPoint x="310" y="230" as="sourcePoint" />
            <mxPoint x="495" y="220" as="targetPoint" />
          </mxGeometry>
        </mxCell>
        <mxCell id="BsTmL9pJ-dNnuUBxhzF8-18" value="" style="endArrow=none;html=1;rounded=0;exitX=1;exitY=1;exitDx=0;exitDy=0;entryX=0;entryY=0.5;entryDx=0;entryDy=0;" edge="1" parent="1" source="BsTmL9pJ-dNnuUBxhzF8-13" target="BsTmL9pJ-dNnuUBxhzF8-12">
          <mxGeometry width="50" height="50" relative="1" as="geometry">
            <mxPoint x="90" y="300" as="sourcePoint" />
            <mxPoint x="190" y="330" as="targetPoint" />
          </mxGeometry>
        </mxCell>
        <mxCell id="BsTmL9pJ-dNnuUBxhzF8-20" value="" style="endArrow=none;html=1;rounded=0;exitX=1;exitY=0.3333333333333333;exitDx=0;exitDy=0;exitPerimeter=0;entryX=0;entryY=1;entryDx=0;entryDy=0;" edge="1" parent="1" source="BsTmL9pJ-dNnuUBxhzF8-6" target="BsTmL9pJ-dNnuUBxhzF8-9">
          <mxGeometry width="50" height="50" relative="1" as="geometry">
            <mxPoint x="90" y="300" as="sourcePoint" />
            <mxPoint x="190" y="330" as="targetPoint" />
          </mxGeometry>
        </mxCell>
        <mxCell id="BsTmL9pJ-dNnuUBxhzF8-21" value="" style="endArrow=none;html=1;rounded=0;exitX=1;exitY=0.3333333333333333;exitDx=0;exitDy=0;exitPerimeter=0;entryX=0;entryY=0;entryDx=0;entryDy=0;" edge="1" parent="1" source="BsTmL9pJ-dNnuUBxhzF8-4" target="BsTmL9pJ-dNnuUBxhzF8-13">
          <mxGeometry width="50" height="50" relative="1" as="geometry">
            <mxPoint x="90" y="190" as="sourcePoint" />
            <mxPoint x="190" y="230" as="targetPoint" />
          </mxGeometry>
        </mxCell>
      </root>
    </mxGraphModel>
  </diagram>
  <diagram id="UofVGslBV-FUuGjH4Wlt" name="Architecture">
    <mxGraphModel dx="2225" dy="1191" grid="1" gridSize="10" guides="1" tooltips="1" connect="1" arrows="1" fold="1" page="1" pageScale="1" pageWidth="827" pageHeight="1169" math="0" shadow="0">
      <root>
        <mxCell id="0" />
        <mxCell id="1" parent="0" />
        <mxCell id="J-0B-dN8Ng3ZwS4IZQkE-1" value="Client&lt;div&gt;(Backend)&lt;/div&gt;" style="rounded=0;whiteSpace=wrap;html=1;" vertex="1" parent="1">
          <mxGeometry x="-40" y="198.75" width="80" height="40" as="geometry" />
        </mxCell>
        <mxCell id="J-0B-dN8Ng3ZwS4IZQkE-2" value="" style="rounded=0;whiteSpace=wrap;html=1;" vertex="1" parent="1">
          <mxGeometry x="110" y="77.5" width="70" height="282.5" as="geometry" />
        </mxCell>
        <mxCell id="J-0B-dN8Ng3ZwS4IZQkE-3" value="Event Bus" style="rounded=0;whiteSpace=wrap;html=1;" vertex="1" parent="1">
          <mxGeometry x="396" y="142.5" width="124" height="55" as="geometry" />
        </mxCell>
        <mxCell id="J-0B-dN8Ng3ZwS4IZQkE-4" value="API handlers for&lt;div&gt;onboarding&lt;/div&gt;&lt;div&gt;(webhook)&lt;/div&gt;" style="rounded=0;whiteSpace=wrap;html=1;" vertex="1" parent="1">
          <mxGeometry x="150" y="97.5" width="100" height="60" as="geometry" />
        </mxCell>
        <mxCell id="J-0B-dN8Ng3ZwS4IZQkE-5" value="Producer" style="ellipse;whiteSpace=wrap;html=1;aspect=fixed;" vertex="1" parent="1">
          <mxGeometry x="330" y="130" width="80" height="80" as="geometry" />
        </mxCell>
        <mxCell id="J-0B-dN8Ng3ZwS4IZQkE-6" value="Consumer" style="ellipse;whiteSpace=wrap;html=1;aspect=fixed;" vertex="1" parent="1">
          <mxGeometry x="500" y="130" width="80" height="80" as="geometry" />
        </mxCell>
        <mxCell id="J-0B-dN8Ng3ZwS4IZQkE-8" value="" style="endArrow=classic;html=1;rounded=0;entryX=0;entryY=0;entryDx=0;entryDy=0;exitX=1;exitY=0.5;exitDx=0;exitDy=0;" edge="1" parent="1" source="J-0B-dN8Ng3ZwS4IZQkE-4" target="J-0B-dN8Ng3ZwS4IZQkE-5">
          <mxGeometry width="50" height="50" relative="1" as="geometry">
            <mxPoint x="400" y="420" as="sourcePoint" />
            <mxPoint x="450" y="370" as="targetPoint" />
          </mxGeometry>
        </mxCell>
        <mxCell id="J-0B-dN8Ng3ZwS4IZQkE-9" value="Onboarding&amp;nbsp;&lt;div&gt;Service&lt;/div&gt;" style="rounded=1;whiteSpace=wrap;html=1;" vertex="1" parent="1">
          <mxGeometry x="640" y="120" width="120" height="60" as="geometry" />
        </mxCell>
        <mxCell id="sk9KG4leG8x9o015Vhss-1" value="Risk Management Service" style="rounded=1;whiteSpace=wrap;html=1;" vertex="1" parent="1">
          <mxGeometry x="640" y="197.5" width="120" height="60" as="geometry" />
        </mxCell>
        <mxCell id="uZnOX6eMvpVZXEcg1IXx-1" value="Monitoring Service" style="rounded=1;whiteSpace=wrap;html=1;" vertex="1" parent="1">
          <mxGeometry x="640" y="275" width="120" height="60" as="geometry" />
        </mxCell>
        <mxCell id="uZnOX6eMvpVZXEcg1IXx-2" value="Database" style="shape=cylinder3;whiteSpace=wrap;html=1;boundedLbl=1;backgroundOutline=1;size=15;" vertex="1" parent="1">
          <mxGeometry x="950" y="185" width="100" height="80" as="geometry" />
        </mxCell>
        <mxCell id="uZnOX6eMvpVZXEcg1IXx-3" value="Data&amp;nbsp;&lt;div&gt;Service&lt;/div&gt;" style="rounded=1;whiteSpace=wrap;html=1;" vertex="1" parent="1">
          <mxGeometry x="850" y="195" width="70" height="60" as="geometry" />
        </mxCell>
        <mxCell id="uZnOX6eMvpVZXEcg1IXx-4" value="" style="endArrow=classic;html=1;rounded=0;entryX=0;entryY=0.5;entryDx=0;entryDy=0;exitX=1;exitY=0;exitDx=0;exitDy=0;" edge="1" parent="1" source="J-0B-dN8Ng3ZwS4IZQkE-6" target="J-0B-dN8Ng3ZwS4IZQkE-9">
          <mxGeometry width="50" height="50" relative="1" as="geometry">
            <mxPoint x="540" y="140" as="sourcePoint" />
            <mxPoint x="590" y="90" as="targetPoint" />
          </mxGeometry>
        </mxCell>
        <mxCell id="uZnOX6eMvpVZXEcg1IXx-5" value="Event Bus" style="rounded=0;whiteSpace=wrap;html=1;" vertex="1" parent="1">
          <mxGeometry x="399" y="267.5" width="124" height="55" as="geometry" />
        </mxCell>
        <mxCell id="uZnOX6eMvpVZXEcg1IXx-6" value="Consumer" style="ellipse;whiteSpace=wrap;html=1;aspect=fixed;" vertex="1" parent="1">
          <mxGeometry x="333" y="255" width="80" height="80" as="geometry" />
        </mxCell>
        <mxCell id="uZnOX6eMvpVZXEcg1IXx-7" value="Producer" style="ellipse;whiteSpace=wrap;html=1;aspect=fixed;" vertex="1" parent="1">
          <mxGeometry x="503" y="255" width="80" height="80" as="geometry" />
        </mxCell>
        <mxCell id="uZnOX6eMvpVZXEcg1IXx-8" value="" style="endArrow=classic;html=1;rounded=0;entryX=0;entryY=0.25;entryDx=0;entryDy=0;exitX=1;exitY=0.5;exitDx=0;exitDy=0;" edge="1" parent="1" source="J-0B-dN8Ng3ZwS4IZQkE-6" target="sk9KG4leG8x9o015Vhss-1">
          <mxGeometry width="50" height="50" relative="1" as="geometry">
            <mxPoint x="590" y="180" as="sourcePoint" />
            <mxPoint x="650" y="153" as="targetPoint" />
          </mxGeometry>
        </mxCell>
        <mxCell id="uZnOX6eMvpVZXEcg1IXx-10" value="" style="endArrow=classic;html=1;rounded=0;entryX=0;entryY=0.25;entryDx=0;entryDy=0;exitX=1;exitY=1;exitDx=0;exitDy=0;" edge="1" parent="1" source="J-0B-dN8Ng3ZwS4IZQkE-6" target="uZnOX6eMvpVZXEcg1IXx-1">
          <mxGeometry width="50" height="50" relative="1" as="geometry">
            <mxPoint x="590" y="180" as="sourcePoint" />
            <mxPoint x="650" y="223" as="targetPoint" />
          </mxGeometry>
        </mxCell>
        <mxCell id="uZnOX6eMvpVZXEcg1IXx-11" value="" style="endArrow=classic;html=1;rounded=0;entryX=1;entryY=0;entryDx=0;entryDy=0;exitX=0;exitY=0.75;exitDx=0;exitDy=0;" edge="1" parent="1" source="J-0B-dN8Ng3ZwS4IZQkE-9" target="uZnOX6eMvpVZXEcg1IXx-7">
          <mxGeometry width="50" height="50" relative="1" as="geometry">
            <mxPoint x="600" y="190" as="sourcePoint" />
            <mxPoint x="660" y="233" as="targetPoint" />
          </mxGeometry>
        </mxCell>
        <mxCell id="uZnOX6eMvpVZXEcg1IXx-12" value="" style="endArrow=classic;html=1;rounded=0;entryX=1;entryY=0.5;entryDx=0;entryDy=0;exitX=0;exitY=0.75;exitDx=0;exitDy=0;" edge="1" parent="1" source="sk9KG4leG8x9o015Vhss-1" target="uZnOX6eMvpVZXEcg1IXx-7">
          <mxGeometry width="50" height="50" relative="1" as="geometry">
            <mxPoint x="610" y="200" as="sourcePoint" />
            <mxPoint x="670" y="243" as="targetPoint" />
          </mxGeometry>
        </mxCell>
        <mxCell id="uZnOX6eMvpVZXEcg1IXx-13" value="" style="endArrow=classic;html=1;rounded=0;entryX=1;entryY=1;entryDx=0;entryDy=0;exitX=0;exitY=0.5;exitDx=0;exitDy=0;" edge="1" parent="1" source="uZnOX6eMvpVZXEcg1IXx-1" target="uZnOX6eMvpVZXEcg1IXx-7">
          <mxGeometry width="50" height="50" relative="1" as="geometry">
            <mxPoint x="620" y="210" as="sourcePoint" />
            <mxPoint x="680" y="253" as="targetPoint" />
          </mxGeometry>
        </mxCell>
        <mxCell id="uZnOX6eMvpVZXEcg1IXx-14" value="" style="endArrow=classic;startArrow=classic;html=1;rounded=0;entryX=0;entryY=0.25;entryDx=0;entryDy=0;exitX=1;exitY=0.5;exitDx=0;exitDy=0;" edge="1" parent="1" source="J-0B-dN8Ng3ZwS4IZQkE-9" target="uZnOX6eMvpVZXEcg1IXx-3">
          <mxGeometry width="50" height="50" relative="1" as="geometry">
            <mxPoint x="680" y="470" as="sourcePoint" />
            <mxPoint x="730" y="420" as="targetPoint" />
          </mxGeometry>
        </mxCell>
        <mxCell id="uZnOX6eMvpVZXEcg1IXx-15" value="RESTful" style="edgeLabel;html=1;align=center;verticalAlign=middle;resizable=0;points=[];" vertex="1" connectable="0" parent="uZnOX6eMvpVZXEcg1IXx-14">
          <mxGeometry x="-0.1484" y="2" relative="1" as="geometry">
            <mxPoint as="offset" />
          </mxGeometry>
        </mxCell>
        <mxCell id="uZnOX6eMvpVZXEcg1IXx-16" value="" style="endArrow=classic;startArrow=classic;html=1;rounded=0;entryX=0;entryY=0.5;entryDx=0;entryDy=0;exitX=1;exitY=0.5;exitDx=0;exitDy=0;" edge="1" parent="1" source="sk9KG4leG8x9o015Vhss-1" target="uZnOX6eMvpVZXEcg1IXx-3">
          <mxGeometry width="50" height="50" relative="1" as="geometry">
            <mxPoint x="770" y="153" as="sourcePoint" />
            <mxPoint x="840" y="220" as="targetPoint" />
          </mxGeometry>
        </mxCell>
        <mxCell id="uZnOX6eMvpVZXEcg1IXx-17" value="RESTful" style="edgeLabel;html=1;align=center;verticalAlign=middle;resizable=0;points=[];" vertex="1" connectable="0" parent="uZnOX6eMvpVZXEcg1IXx-16">
          <mxGeometry x="-0.1484" y="2" relative="1" as="geometry">
            <mxPoint x="10" y="1" as="offset" />
          </mxGeometry>
        </mxCell>
        <mxCell id="uZnOX6eMvpVZXEcg1IXx-18" value="" style="endArrow=classic;startArrow=classic;html=1;rounded=0;entryX=0;entryY=0.5;entryDx=0;entryDy=0;entryPerimeter=0;" edge="1" parent="1" source="uZnOX6eMvpVZXEcg1IXx-3" target="uZnOX6eMvpVZXEcg1IXx-2">
          <mxGeometry width="50" height="50" relative="1" as="geometry">
            <mxPoint x="680" y="470" as="sourcePoint" />
            <mxPoint x="730" y="420" as="targetPoint" />
          </mxGeometry>
        </mxCell>
        <mxCell id="uZnOX6eMvpVZXEcg1IXx-19" value="" style="endArrow=classic;startArrow=classic;html=1;rounded=0;entryX=0;entryY=0.75;entryDx=0;entryDy=0;exitX=1;exitY=0.5;exitDx=0;exitDy=0;" edge="1" parent="1" source="uZnOX6eMvpVZXEcg1IXx-1" target="uZnOX6eMvpVZXEcg1IXx-3">
          <mxGeometry width="50" height="50" relative="1" as="geometry">
            <mxPoint x="770" y="238" as="sourcePoint" />
            <mxPoint x="860" y="235" as="targetPoint" />
          </mxGeometry>
        </mxCell>
        <mxCell id="uZnOX6eMvpVZXEcg1IXx-20" value="RESTful" style="edgeLabel;html=1;align=center;verticalAlign=middle;resizable=0;points=[];" vertex="1" connectable="0" parent="uZnOX6eMvpVZXEcg1IXx-19">
          <mxGeometry x="-0.1484" y="2" relative="1" as="geometry">
            <mxPoint x="10" y="1" as="offset" />
          </mxGeometry>
        </mxCell>
        <mxCell id="uZnOX6eMvpVZXEcg1IXx-21" value="API handlers for&lt;div&gt;risk management&lt;/div&gt;&lt;div&gt;(webhook)&lt;/div&gt;" style="rounded=0;whiteSpace=wrap;html=1;" vertex="1" parent="1">
          <mxGeometry x="150" y="172.5" width="100" height="60" as="geometry" />
        </mxCell>
        <mxCell id="uZnOX6eMvpVZXEcg1IXx-22" value="API handlers for&lt;div&gt;monitoring&lt;/div&gt;&lt;div&gt;(webhook)&lt;/div&gt;" style="rounded=0;whiteSpace=wrap;html=1;" vertex="1" parent="1">
          <mxGeometry x="150" y="250" width="100" height="60" as="geometry" />
        </mxCell>
        <mxCell id="uZnOX6eMvpVZXEcg1IXx-23" value="" style="endArrow=classic;startArrow=classic;html=1;rounded=0;entryX=0;entryY=0.5;entryDx=0;entryDy=0;exitX=1;exitY=0.5;exitDx=0;exitDy=0;" edge="1" parent="1" source="J-0B-dN8Ng3ZwS4IZQkE-1" target="J-0B-dN8Ng3ZwS4IZQkE-2">
          <mxGeometry width="50" height="50" relative="1" as="geometry">
            <mxPoint x="270" y="480" as="sourcePoint" />
            <mxPoint x="320" y="430" as="targetPoint" />
          </mxGeometry>
        </mxCell>
        <mxCell id="uZnOX6eMvpVZXEcg1IXx-24" value="" style="endArrow=classic;html=1;rounded=0;entryX=0;entryY=0.5;entryDx=0;entryDy=0;exitX=1;exitY=0.5;exitDx=0;exitDy=0;" edge="1" parent="1" source="uZnOX6eMvpVZXEcg1IXx-21" target="J-0B-dN8Ng3ZwS4IZQkE-5">
          <mxGeometry width="50" height="50" relative="1" as="geometry">
            <mxPoint x="270" y="480" as="sourcePoint" />
            <mxPoint x="320" y="430" as="targetPoint" />
          </mxGeometry>
        </mxCell>
        <mxCell id="uZnOX6eMvpVZXEcg1IXx-26" value="" style="endArrow=classic;html=1;rounded=0;entryX=0;entryY=1;entryDx=0;entryDy=0;exitX=1;exitY=0.25;exitDx=0;exitDy=0;" edge="1" parent="1" source="uZnOX6eMvpVZXEcg1IXx-22" target="J-0B-dN8Ng3ZwS4IZQkE-5">
          <mxGeometry width="50" height="50" relative="1" as="geometry">
            <mxPoint x="250" y="138" as="sourcePoint" />
            <mxPoint x="352" y="152" as="targetPoint" />
          </mxGeometry>
        </mxCell>
        <mxCell id="uZnOX6eMvpVZXEcg1IXx-27" value="API&lt;br&gt;Gateway" style="text;html=1;align=center;verticalAlign=middle;whiteSpace=wrap;rounded=0;" vertex="1" parent="1">
          <mxGeometry x="115" y="322.5" width="60" height="30" as="geometry" />
        </mxCell>
        <mxCell id="uZnOX6eMvpVZXEcg1IXx-28" value="" style="endArrow=classic;html=1;rounded=0;entryX=1;entryY=0.75;entryDx=0;entryDy=0;exitX=0;exitY=0;exitDx=0;exitDy=0;" edge="1" parent="1" source="uZnOX6eMvpVZXEcg1IXx-6" target="J-0B-dN8Ng3ZwS4IZQkE-4">
          <mxGeometry width="50" height="50" relative="1" as="geometry">
            <mxPoint x="260" y="275" as="sourcePoint" />
            <mxPoint x="352" y="208" as="targetPoint" />
          </mxGeometry>
        </mxCell>
        <mxCell id="uZnOX6eMvpVZXEcg1IXx-29" value="" style="endArrow=classic;html=1;rounded=0;entryX=1;entryY=0.75;entryDx=0;entryDy=0;exitX=0;exitY=0.5;exitDx=0;exitDy=0;" edge="1" parent="1" source="uZnOX6eMvpVZXEcg1IXx-6" target="uZnOX6eMvpVZXEcg1IXx-21">
          <mxGeometry width="50" height="50" relative="1" as="geometry">
            <mxPoint x="270" y="285" as="sourcePoint" />
            <mxPoint x="362" y="218" as="targetPoint" />
          </mxGeometry>
        </mxCell>
        <mxCell id="uZnOX6eMvpVZXEcg1IXx-32" value="" style="endArrow=classic;html=1;rounded=0;entryX=0.97;entryY=0.633;entryDx=0;entryDy=0;exitX=0;exitY=1;exitDx=0;exitDy=0;entryPerimeter=0;" edge="1" parent="1" source="uZnOX6eMvpVZXEcg1IXx-6" target="uZnOX6eMvpVZXEcg1IXx-22">
          <mxGeometry width="50" height="50" relative="1" as="geometry">
            <mxPoint x="343" y="305" as="sourcePoint" />
            <mxPoint x="260" y="228" as="targetPoint" />
          </mxGeometry>
        </mxCell>
      </root>
    </mxGraphModel>
  </diagram>
</mxfile>
